<svg width="27" height="27" viewBox="0 0 27 27" fill="none" xmlns="http://www.w3.org/2000/svg">
<path d="M24.875 5.28125C24.875 3.91373 24.3318 2.60222 23.3648 1.63523C22.3978 0.668246 21.0863 0.125 19.7188 0.125H5.28125C3.91373 0.125 2.60222 0.668246 1.63523 1.63523C0.668246 2.60222 0.125 3.91373 0.125 5.28125V19.7188C0.125 21.0863 0.668246 22.3978 1.63523 23.3648C2.60222 24.3318 3.91373 24.875 5.28125 24.875H8.90506C8.37981 24.2388 7.92544 23.5472 7.55 22.8125H5.28125C4.46074 22.8125 3.67383 22.4866 3.09364 21.9064C2.51345 21.3262 2.1875 20.5393 2.1875 19.7188V8.375H11.1326C12.9785 7.07562 15.2287 6.3125 17.6562 6.3125C20.3994 6.3125 22.9156 7.286 24.875 8.90506V5.28125ZM17.6562 6.3125H2.1875V5.28125C2.1875 4.46074 2.51345 3.67383 3.09364 3.09364C3.67383 2.51345 4.46074 2.1875 5.28125 2.1875H19.7188C20.5393 2.1875 21.3262 2.51345 21.9064 3.09364C22.4866 3.67383 22.8125 4.46074 22.8125 5.28125V6.3125H17.6562ZM16.3672 13.5312C16.3672 13.1894 16.503 12.8615 16.7447 12.6197C16.9865 12.378 17.3144 12.2422 17.6562 12.2422C17.9981 12.2422 18.326 12.378 18.5678 12.6197C18.8095 12.8615 18.9453 13.1894 18.9453 13.5312C18.9453 13.8731 18.8095 14.201 18.5678 14.4428C18.326 14.6845 17.9981 14.8203 17.6562 14.8203C17.3144 14.8203 16.9865 14.6845 16.7447 14.4428C16.503 14.201 16.3672 13.8731 16.3672 13.5312ZM18.6875 21.7812C18.6875 22.0548 18.5789 22.3171 18.3855 22.5105C18.1921 22.7039 17.9298 22.8125 17.6562 22.8125C17.3827 22.8125 17.1204 22.7039 16.927 22.5105C16.7336 22.3171 16.625 22.0548 16.625 21.7812V17.6562C16.625 17.3827 16.7336 17.1204 16.927 16.927C17.1204 16.7336 17.3827 16.625 17.6562 16.625C17.9298 16.625 18.1921 16.7336 18.3855 16.927C18.5789 17.1204 18.6875 17.3827 18.6875 17.6562V21.7812ZM8.375 17.6562C8.375 16.4374 8.61507 15.2305 9.08149 14.1045C9.54792 12.9784 10.2316 11.9553 11.0934 11.0934C11.9553 10.2316 12.9784 9.54792 14.1045 9.08149C15.2305 8.61507 16.4374 8.375 17.6562 8.375C18.8751 8.375 20.082 8.61507 21.208 9.08149C22.3341 9.54792 23.3572 10.2316 24.2191 11.0934C25.0809 11.9553 25.7646 12.9784 26.231 14.1045C26.6974 15.2305 26.9375 16.4374 26.9375 17.6562C26.9375 20.1178 25.9597 22.4785 24.2191 24.2191C22.4785 25.9597 20.1178 26.9375 17.6562 26.9375C15.1947 26.9375 12.834 25.9597 11.0934 24.2191C9.35284 22.4785 8.375 20.1178 8.375 17.6562ZM10.4375 17.6562C10.4375 19.5708 11.198 21.4069 12.5518 22.7607C13.9056 24.1145 15.7417 24.875 17.6562 24.875C19.5708 24.875 21.4069 24.1145 22.7607 22.7607C24.1145 21.4069 24.875 19.5708 24.875 17.6562C24.875 15.7417 24.1145 13.9056 22.7607 12.5518C21.4069 11.198 19.5708 10.4375 17.6562 10.4375C15.7417 10.4375 13.9056 11.198 12.5518 12.5518C11.198 13.9056 10.4375 15.7417 10.4375 17.6562Z" fill="#2C49FE"/>
</svg>
